<svg xmlns="http://www.w3.org/2000/svg" viewBox="0 0 66.68 65.88"><g id="Capa_2" data-name="Capa 2"><g id="Capa_1-2" data-name="Capa 1"><circle cx="15.81" cy="15.81" r="15.81" fill="#55b042"/><circle cx="15.81" cy="15.81" r="14.07" fill="#55b042"/><path d="M15.81,30.16A14.36,14.36,0,1,1,30.16,15.81,14.37,14.37,0,0,1,15.81,30.16Zm0-28.42A14.07,14.07,0,1,0,29.88,15.81,14.08,14.08,0,0,0,15.81,1.74Z" fill="#fff"/><path d="M22.27,12c0-3.5-2.06-5.5-4.91-5.51a5.2,5.2,0,0,0-5.15,5.22V20h1.88V16h3.45v4h1.88V11.64H17.54v3.8H14.09v-3.8a3.42,3.42,0,0,1,3.22-3.43A3.69,3.69,0,0,1,20.85,12l-1-.82v1.32L21.54,14l1.81-1.54V11.13Z" fill="#fff"/><path d="M17.54,20a4.09,4.09,0,0,1-.81,2.22,3,3,0,0,1-1.49,1.05A3.19,3.19,0,0,1,13,23.05a3.84,3.84,0,0,1-2.18-3.4l1,.82V19.15l-1.71-1.53L8.28,19.16v1.31l1.08-.82c.07,3.37,1.82,4.47,1.82,4.47a5.09,5.09,0,0,0,5.1.62A5.16,5.16,0,0,0,19.42,20Z" fill="#fff"/><circle cx="39.91" cy="39.11" r="26.78" fill="#5ac5f2"/><path d="M39.77,63.41A24.41,24.41,0,1,1,57,56.26,24.25,24.25,0,0,1,39.77,63.41Zm0-48.36a24,24,0,1,0,24,24A24,24,0,0,0,39.77,15.05Z" fill="#fff"/><path d="M52.81,47.78h0a.94.94,0,0,1,.27-.67l.8-.8c1.79-1.78,2.66-2.8,2.69-3.86a1.23,1.23,0,0,0-1.35-1.34,2.33,2.33,0,0,0-1.09.3.71.71,0,0,1-1-.44h0a.85.85,0,0,1,.36-1,4.34,4.34,0,0,1,2.11-.54,2.67,2.67,0,0,1,2.88,2.85c0,1.53-1,2.75-2.19,3.93l-.75.7v0h2.36a.77.77,0,0,1,.73.81v.13a.77.77,0,0,1-.73.81H53.62A.86.86,0,0,1,52.81,47.78Z" fill="#fff"/><path d="M50.75,41.18h0a1.92,1.92,0,0,1,1.38,2.39C51.26,47.41,48.35,55.15,39,55.64c0,0-11.83.74-13.78-13.83a18.58,18.58,0,0,1,2.9-13.07,12.17,12.17,0,0,1,4.71-4.08s4.86-2.72,12.25.21a.35.35,0,0,0,.44-.07l1.89-2.11a.37.37,0,0,1,.64.22l2,10c.06.34-.21.63-.49.53L41,30.9a.48.48,0,0,1-.15-.76l1.59-1.72a.49.49,0,0,0-.15-.76,9.29,9.29,0,0,0-10.71,2.65,12.45,12.45,0,0,0-2.82,7.1c-.27,3.47.23,8.77,4.79,12.5a8.79,8.79,0,0,0,7.77,1.52c2.78-.72,6-3,7.68-9A1.64,1.64,0,0,1,50.75,41.18Z" fill="#fff"/></g></g></svg>